<svg version="1.2" baseProfile="tiny-ps" xmlns="http://www.w3.org/2000/svg" viewBox="0 0 20 20" width="20" height="20">
	<title>Saffola Masala Oats_Landing Page_Desktop_v3</title>
	<style>
		tspan { white-space:pre }
		.shp0 { fill: #ffffff } 
	</style>
	<g id="Saffola Masala Oats_Landing Page_Desktop_v3">
		<g id="footer">
			<g id="social icons">
				<g id="instagram">
					<path id="Shape" fill-rule="evenodd" class="shp0" d="M20 10.5C20 13.08 19.99 13.4 19.94 14.42C19.9 15.43 19.74 16.12 19.5 16.72C19.01 18 18 19.01 16.72 19.5C16.12 19.74 15.43 19.9 14.42 19.94C13.4 19.99 13.08 20 10.5 20C7.92 20 7.6 19.99 6.58 19.94C5.57 19.9 4.88 19.74 4.28 19.5C3.65 19.26 3.07 18.89 2.6 18.41C2.11 17.93 1.74 17.36 1.5 16.72C1.26 16.12 1.1 15.43 1.06 14.42C1.01 13.4 1 13.08 1 10.5C1 7.92 1.01 7.6 1.06 6.58C1.1 5.57 1.27 4.88 1.5 4.28C1.74 3.65 2.11 3.07 2.6 2.6C3.07 2.11 3.64 1.74 4.28 1.5C4.88 1.26 5.58 1.1 6.59 1.05C7.6 1.01 7.92 1 10.5 1C13.08 1 13.41 1.01 14.42 1.06C15.43 1.1 16.12 1.27 16.73 1.5C17.36 1.74 17.93 2.11 18.41 2.6C18.9 3.07 19.27 3.64 19.51 4.28C19.74 4.88 19.91 5.58 19.95 6.59C20 7.6 20 7.92 20 10.5ZM18.3 10.51C18.3 7.97 18.28 7.67 18.24 6.67C18.2 5.75 18.04 5.24 17.91 4.91C17.76 4.5 17.52 4.12 17.2 3.82C16.9 3.5 16.52 3.26 16.11 3.11C15.78 2.98 15.28 2.82 14.35 2.78C13.35 2.74 13.05 2.73 10.51 2.73C7.98 2.73 7.67 2.74 6.67 2.78C5.75 2.82 5.24 2.98 4.91 3.11C4.5 3.26 4.13 3.5 3.82 3.82C3.5 4.12 3.26 4.5 3.1 4.91C2.97 5.24 2.82 5.74 2.78 6.67C2.73 7.67 2.72 7.97 2.72 10.51C2.72 13.04 2.73 13.34 2.78 14.35C2.82 15.27 2.97 15.78 3.1 16.11C3.26 16.52 3.5 16.89 3.81 17.2C4.12 17.52 4.49 17.76 4.91 17.91C5.24 18.04 5.74 18.2 6.67 18.24C7.67 18.28 7.97 18.29 10.51 18.29C13.04 18.29 13.34 18.28 14.35 18.24C15.27 18.2 15.77 18.04 16.11 17.91C16.94 17.59 17.59 16.93 17.91 16.11C18.04 15.77 18.2 15.27 18.24 14.34C18.28 13.34 18.3 13.04 18.3 10.51Z" />
					<path id="Shape" fill-rule="evenodd" class="shp0" d="M15.25 10.5C15.25 13.12 13.12 15.25 10.5 15.25C7.88 15.25 5.75 13.12 5.75 10.5C5.75 7.88 7.88 5.75 10.5 5.75C13.12 5.75 15.25 7.88 15.25 10.5ZM10.5 13.58C12.2 13.58 13.58 12.2 13.58 10.5C13.58 8.8 12.2 7.42 10.5 7.42C8.8 7.42 7.42 8.8 7.42 10.5C7.42 12.2 8.8 13.58 10.5 13.58Z" />
					<path id="Path" class="shp0" d="M15.72 7.65C14.94 7.65 14.3 7.01 14.3 6.22C14.3 5.44 14.94 4.8 15.72 4.8C16.51 4.8 17.15 5.44 17.15 6.22C17.15 7.01 16.51 7.65 15.72 7.65Z" />
				</g>
			</g>
		</g>
	</g>
</svg>