<svg version="1.2" baseProfile="tiny-ps" xmlns="http://www.w3.org/2000/svg" viewBox="0 0 14 18" width="14" height="18">
	<title>Saffola Masala Oats_Landing Page_Desktop_v3</title>
	<style>
		tspan { white-space:pre }
		.shp0 { fill: #ffffff } 
	</style>
	<g id="Saffola Masala Oats_Landing Page_Desktop_v3">
		<g id="recipes">
			<g id="1">
				<g id="time">
					<g id="chronometer">
						<path id="Shape" fill-rule="evenodd" class="shp0" d="M14 9.96C14 11.7 13.32 13.33 12.1 14.56C10.87 15.79 9.24 16.47 7.5 16.47C5.76 16.47 4.13 15.79 2.9 14.56C1.68 13.33 1 11.7 1 9.96C1 8.72 1.34 7.53 1.98 6.51L1.58 6.1C1.17 5.7 1.17 5.04 1.58 4.64L2.19 4.02C2.39 3.83 2.65 3.72 2.92 3.72C3.2 3.72 3.46 3.83 3.66 4.02L4.06 4.43C4.96 3.86 5.99 3.53 7.08 3.46L7.08 2.85L6.45 2.85C6.22 2.85 6.03 2.66 6.03 2.42C6.03 2.19 6.22 2 6.45 2L8.55 2C8.78 2 8.97 2.19 8.97 2.42C8.97 2.66 8.78 2.85 8.55 2.85L7.92 2.85L7.92 3.46C9.5 3.56 10.97 4.22 12.1 5.35C13.32 6.58 14 8.22 14 9.96ZM2.18 5.5L2.48 5.81C2.62 5.65 2.76 5.5 2.9 5.35C3.05 5.2 3.21 5.06 3.36 4.93L3.06 4.62C3.01 4.58 2.95 4.57 2.92 4.57C2.89 4.57 2.84 4.58 2.79 4.62L2.18 5.24C2.1 5.31 2.1 5.43 2.18 5.5ZM13.15 9.96C13.15 6.83 10.62 4.29 7.5 4.29C4.38 4.29 1.85 6.83 1.85 9.96C1.85 13.08 4.38 15.62 7.5 15.62C10.62 15.62 13.15 13.08 13.15 9.96Z" />
						<path id="Shape" fill-rule="evenodd" class="shp0" d="M12.23 9.84C12.23 12.5 10.11 14.66 7.5 14.66C4.89 14.66 2.77 12.5 2.77 9.84C2.77 7.18 4.89 5.01 7.5 5.01C10.11 5.01 12.23 7.18 12.23 9.84ZM11.38 10.26L10.91 10.26C10.68 10.26 10.5 10.07 10.5 9.84C10.5 9.61 10.68 9.42 10.91 9.42L11.38 9.42C11.19 7.56 9.74 6.07 7.91 5.88L7.91 6.37C7.91 6.6 7.73 6.79 7.5 6.79C7.27 6.79 7.09 6.6 7.09 6.37L7.09 5.88C5.26 6.07 3.81 7.56 3.62 9.42L4.09 9.42C4.32 9.42 4.5 9.61 4.5 9.84C4.5 10.07 4.32 10.26 4.09 10.26L3.62 10.26C3.81 12.12 5.26 13.6 7.09 13.8L7.09 13.31C7.09 13.08 7.27 12.89 7.5 12.89C7.73 12.89 7.91 13.08 7.91 13.31L7.91 13.8C9.74 13.6 11.19 12.12 11.38 10.26Z" />
						<path id="Path" class="shp0" d="M8.28 9.58L7.71 9.58L7.71 7.85C7.71 7.62 7.53 7.43 7.31 7.43C7.09 7.43 6.91 7.62 6.91 7.85L6.91 10.01C6.91 10.25 7.09 10.44 7.31 10.44L8.28 10.44C8.5 10.44 8.68 10.25 8.68 10.01C8.68 9.78 8.5 9.58 8.28 9.58Z" />
					</g>
				</g>
			</g>
		</g>
	</g>
</svg>