<svg version="1.2" baseProfile="tiny-ps" xmlns="http://www.w3.org/2000/svg" viewBox="0 0 16 12" width="16" height="12">
	<title>Saffola Masala Oats_Landing Page_Desktop_v3</title>
	<style>
		tspan { white-space:pre }
		.shp0 { fill: #ffffff } 
	</style>
	<g id="Saffola Masala Oats_Landing Page_Desktop_v3">
		<g id="recipes">
			<g id="2">
				<g id="serves">
					<g id="food1">
						<path id="Shape" fill-rule="evenodd" class="shp0" d="M14.68 10.72L2.32 10.72C1.59 10.72 1 10.15 1 9.44L1 9.32C1 8.62 1.59 8.04 2.32 8.04L14.68 8.04C15.41 8.04 16 8.62 16 9.32L16 9.44C16 10.15 15.41 10.72 14.68 10.72ZM2.32 8.9C2.08 8.9 1.88 9.09 1.88 9.32L1.88 9.44C1.88 9.67 2.08 9.87 2.32 9.87L14.68 9.87C14.92 9.87 15.12 9.67 15.12 9.44L15.12 9.32C15.12 9.09 14.92 8.9 14.68 8.9L2.32 8.9Z" />
						<path id="Path" class="shp0" d="M10.09 0.67L6.23 0.67C5.98 0.67 5.77 0.52 5.77 0.33C5.77 0.15 5.98 0 6.23 0L10.09 0C10.34 0 10.55 0.15 10.55 0.33C10.55 0.52 10.34 0.67 10.09 0.67Z" />
						<path id="Shape" fill-rule="evenodd" class="shp0" d="M9.43 2.68L7.57 2.68C7.33 2.68 7.14 2.49 7.14 2.25L7.14 0.43C7.14 0.19 7.33 0 7.57 0L9.43 0C9.67 0 9.86 0.19 9.86 0.43L9.86 2.25C9.86 2.49 9.67 2.68 9.43 2.68ZM8.01 1.83L8.99 1.83L8.99 0.86L8.01 0.86L8.01 1.83Z" />
						<path id="Shape" fill-rule="evenodd" class="shp0" d="M14.2 8.71L2.12 8.71C1.88 8.71 1.68 8.52 1.68 8.29C1.68 6.61 2.36 5.04 3.58 3.85C4.8 2.66 6.43 2.01 8.16 2.01C9.89 2.01 11.52 2.66 12.74 3.85C13.96 5.04 14.64 6.61 14.64 8.29C14.64 8.52 14.44 8.71 14.2 8.71ZM2.57 7.87L13.75 7.87C13.52 5.07 11.1 2.85 8.16 2.85C5.21 2.85 2.79 5.07 2.57 7.87Z" />
					</g>
				</g>
			</g>
		</g>
	</g>
</svg>